<svg xmlns="http://www.w3.org/2000/svg" viewBox="0 0 800 600" role="img" aria-labelledby="title desc">
  <title id="title">Мадина Саидова</title>
  <desc id="desc">Портрет преподавателя языков</desc>
  <defs>
    <linearGradient id="bg" x1="0" x2="1" y1="0" y2="1">
      <stop offset="0" stop-color="#346f9f"/>
      <stop offset="1" stop-color="#9fd2ed"/>
    </linearGradient>
  </defs>
  <rect width="800" height="600" fill="url(#bg)"/>
  <rect x="80" y="70" width="640" height="460" rx="24" fill="rgba(255,255,255,0.12)"/>
  <circle cx="400" cy="232" r="86" fill="#f2c9a8"/>
  <path d="M320 238c-12-64 18-122 80-122 66 0 90 58 76 122-18-28-45-45-76-45-30 0-59 17-80 45z" fill="#2a2b36"/>
  <path d="M280 360c26-34 70-52 120-52s94 18 120 52v143H280z" fill="#5a3f89"/>
  <rect x="318" y="382" width="164" height="108" rx="18" fill="#ffffff"/>
  <path d="M343 414h114v14H343zm0 32h114v14H343z" fill="#8ca6ba"/>
</svg>
