<svg xmlns="http://www.w3.org/2000/svg" viewBox="0 0 800 600" role="img" aria-labelledby="title desc">
  <title id="title">Фаррух Рахимов</title>
  <desc id="desc">Портрет преподавателя медицинских дисциплин</desc>
  <defs>
    <linearGradient id="bg" x1="0" x2="1" y1="0" y2="1">
      <stop offset="0" stop-color="#1f5a74"/>
      <stop offset="1" stop-color="#95cfe4"/>
    </linearGradient>
  </defs>
  <rect width="800" height="600" fill="url(#bg)"/>
  <rect x="80" y="70" width="640" height="460" rx="24" fill="rgba(255,255,255,0.12)"/>
  <circle cx="400" cy="226" r="84" fill="#e8b993"/>
  <path d="M322 226c0-64 34-114 78-114s78 50 78 114c-20-24-46-36-78-36-31 0-58 12-78 36z" fill="#1d2a35"/>
  <rect x="276" y="334" width="248" height="176" rx="30" fill="#ffffff"/>
  <rect x="388" y="334" width="24" height="176" fill="#d6e6ef"/>
  <rect x="334" y="380" width="132" height="26" rx="13" fill="#7fb5d5"/>
  <circle cx="400" cy="446" r="28" fill="#1f7cad"/>
  <rect x="392" y="432" width="16" height="28" fill="#ffffff"/>
  <rect x="386" y="438" width="28" height="16" fill="#ffffff"/>
</svg>
